{
  "accessors": [
    {
      "bufferView": 2,
      "componentType": 5126,
      "count": 213,
      "max": [
        2.19807767868042,
        0.7410594820976257,
        0.7410594820976257
      ],
      "min": [
        -1.0080238580703735,
        -0.7410594820976257,
        -0.741059422492981
      ],
      "type": "VEC3"
    },
    {
      "bufferView": 2,
      "byteOffset": 2556,
      "componentType": 5126,
      "count": 213,
      "max": [
        1.0,
        0.9292393326759338,
        0.9292393326759338
      ],
      "min": [
        -1.0,
        -0.9292393326759338,
        -0.9292393326759338
      ],
      "type": "VEC3"
    },
    {
      "bufferView": 3,
      "componentType": 5126,
      "count": 213,
      "max": [
        0.650100588798523,
        0.8971543312072754,
        0.9014676213264465,
        -1.0
      ],
      "min": [
        -0.9465695023536682,
        -0.9645578265190125,
        -0.9999998211860657,
        -1.0
      ],
      "type": "VEC4"
    },
    {
      "bufferView": 1,
      "componentType": 5126,
      "count": 213,
      "max": [
        1.0,
        0.9271923899650574
      ],
      "min": [
        0.628161609172821,
        0.0
      ],
      "type": "VEC2"
    },
    {
      "bufferView": 0,
      "componentType": 5125,
      "count": 1056,
      "type": "SCALAR"
    },
    {
      "bufferView": 2,
      "byteOffset": 5112,
      "componentType": 5126,
      "count": 374,
      "max": [
        2.19807767868042,
        0.8954491019248962,
        0.8954491019248962
      ],
      "min": [
        -0.9779900312423706,
        -0.8954491019248962,
        -0.8954490423202515
      ],
      "type": "VEC3"
    },
    {
      "bufferView": 2,
      "byteOffset": 9600,
      "componentType": 5126,
      "count": 374,
      "max": [
        0.9031112194061279,
        0.98077392578125,
        0.98077392578125
      ],
      "min": [
        -0.5524654388427734,
        -0.98077392578125,
        -0.98077392578125
      ],
      "type": "VEC3"
    },
    {
      "bufferView": 3,
      "byteOffset": 3408,
      "componentType": 5126,
      "count": 374,
      "max": [
        -0.24666337668895721,
        0.9528937339782715,
        0.899436891078949,
        -1.0
      ],
      "min": [
        -0.9999868869781494,
        -0.9069286584854126,
        -0.8861066102981567,
        -1.0
      ],
      "type": "VEC4"
    },
    {
      "bufferView": 1,
      "byteOffset": 1704,
      "componentType": 5126,
      "count": 374,
      "max": [
        0.7665031552314758,
        0.9541109204292297
      ],
      "min": [
        0.0,
        0.0
      ],
      "type": "VEC2"
    },
    {
      "bufferView": 0,
      "byteOffset": 4224,
      "componentType": 5125,
      "count": 1920,
      "type": "SCALAR"
    },
    {
      "bufferView": 2,
      "byteOffset": 14088,
      "componentType": 5126,
      "count": 452,
      "max": [
        5.313643455505371,
        0.43570297956466675,
        5.729667663574219
      ],
      "min": [
        -5.313643455505371,
        -0.08819794654846191,
        -14.144669532775879
      ],
      "type": "VEC3"
    },
    {
      "bufferView": 2,
      "byteOffset": 19512,
      "componentType": 5126,
      "count": 452,
      "max": [
        0.9991906881332397,
        0.5183950662612915,
        0.999882698059082
      ],
      "min": [
        -0.9991906881332397,
        -1.0,
        -0.999735951423645
      ],
      "type": "VEC3"
    },
    {
      "bufferView": 1,
      "byteOffset": 4696,
      "componentType": 5126,
      "count": 452,
      "max": [
        1.0000001192092896,
        1.0000001192092896
      ],
      "min": [
        0.0,
        0.0
      ],
      "type": "VEC2"
    },
    {
      "bufferView": 0,
      "byteOffset": 11904,
      "componentType": 5125,
      "count": 1530,
      "type": "SCALAR"
    }
  ],
  "asset": {
    "extras": {
      "author": "Ya16 (https://sketchfab.com/Yarik16)",
      "license": "CC-BY-4.0 (http://creativecommons.org/licenses/by/4.0/)",
      "source": "https://sketchfab.com/3d-models/soda-can-f28f781755a84a4e83e56e36d06c624f",
      "title": "Soda can"
    },
    "generator": "Sketchfab-11.69.1",
    "version": "2.0"
  },
  "bufferViews": [
    {
      "buffer": 0,
      "byteLength": 18024,
      "name": "floatBufferViews",
      "target": 34963
    },
    {
      "buffer": 0,
      "byteLength": 8312,
      "byteOffset": 18024,
      "byteStride": 8,
      "name": "floatBufferViews",
      "target": 34962
    },
    {
      "buffer": 0,
      "byteLength": 24936,
      "byteOffset": 26336,
      "byteStride": 12,
      "name": "floatBufferViews",
      "target": 34962
    },
    {
      "buffer": 0,
      "byteLength": 9392,
      "byteOffset": 51272,
      "byteStride": 16,
      "name": "floatBufferViews",
      "target": 34962
    }
  ],
  "buffers": [
    {
      "byteLength": 60664,
      "uri": "scene.bin"
    }
  ],
  "images": [
    {
      "uri": "textures/metal-z_metallicRoughness.png"
    },
    {
      "uri": "textures/metal-z_normal.png"
    },
    {
      "uri": "textures/metal-xy_metallicRoughness.png"
    }
  ],
  "materials": [
    {
      "doubleSided": true,
      "name": "metal-z",
      "normalTexture": {
        "index": 1
      },
      "pbrMetallicRoughness": {
        "baseColorFactor": [
          0.799103,
          0.799103,
          0.799103,
          1.0
        ],
        "metallicFactor": 0.952091,
        "metallicRoughnessTexture": {
          "index": 0
        },
        "roughnessFactor": 0.209
      }
    },
    {
      "doubleSided": true,
      "name": "metal-xy",
      "normalTexture": {
        "index": 1
      },
      "pbrMetallicRoughness": {
        "baseColorFactor": [
          0.799103,
          0.799103,
          0.799103,
          1.0
        ],
        "metallicFactor": 0.952,
        "metallicRoughnessTexture": {
          "index": 2
        },
        "roughnessFactor": 0.209
      }
    },
    {
      "doubleSided": true,
      "name": "can_opener-metalic",
      "pbrMetallicRoughness": {
        "baseColorFactor": [
          0.799103,
          0.799103,
          0.799103,
          1.0
        ],
        "metallicFactor": 0.952091,
        "roughnessFactor": 0.209
      }
    }
  ],
  "meshes": [
    {
      "name": "Object_0",
      "primitives": [
        {
          "attributes": {
            "NORMAL": 1,
            "POSITION": 0,
            "TANGENT": 2,
            "TEXCOORD_0": 3
          },
          "indices": 4,
          "material": 0,
          "mode": 4
        }
      ]
    },
    {
      "name": "Object_1",
      "primitives": [
        {
          "attributes": {
            "NORMAL": 6,
            "POSITION": 5,
            "TANGENT": 7,
            "TEXCOORD_0": 8
          },
          "indices": 9,
          "material": 1,
          "mode": 4
        }
      ]
    },
    {
      "name": "Object_2",
      "primitives": [
        {
          "attributes": {
            "NORMAL": 11,
            "POSITION": 10,
            "TEXCOORD_0": 12
          },
          "indices": 13,
          "material": 2,
          "mode": 4
        }
      ]
    }
  ],
  "nodes": [
    {
      "children": [
        1
      ],
      "matrix": [
        1.0,
        0.0,
        0.0,
        0.0,
        0.0,
        2.220446049250313e-16,
        -1.0,
        0.0,
        0.0,
        1.0,
        2.220446049250313e-16,
        0.0,
        0.0,
        0.0,
        0.0,
        1.0
      ],
      "name": "Sketchfab_model"
    },
    {
      "children": [
        2
      ],
      "name": "root"
    },
    {
      "children": [
        3,
        6
      ],
      "matrix": [
        1.0,
        0.0,
        0.0,
        0.0,
        0.0,
        2.220446049250313e-16,
        1.0,
        0.0,
        0.0,
        -1.0,
        2.220446049250313e-16,
        0.0,
        0.0,
        0.0,
        0.0,
        1.0
      ],
      "name": "GLTF_SceneRootNode"
    },
    {
      "children": [
        4,
        5
      ],
      "matrix": [
        8.429369480200677e-08,
        -0.9999999999999966,
        -0.0,
        0.0,
        0.9999999999999966,
        8.429369480200677e-08,
        0.0,
        0.0,
        0.0,
        0.0,
        1.0,
        0.0,
        0.0,
        0.6205215454101563,
        0.0,
        1.0
      ],
      "name": "can_1"
    },
    {
      "mesh": 0,
      "name": "Object_4"
    },
    {
      "mesh": 1,
      "name": "Object_5"
    },
    {
      "children": [
        7
      ],
      "matrix": [
        -0.03259262070059603,
        1.0620024177253808e-08,
        0.0,
        0.0,
        -1.0620024177253808e-08,
        -0.03259262070059603,
        -0.0,
        0.0,
        -0.0,
        0.0,
        0.03259262070059776,
        0.0,
        0.0,
        1.5840346813201904,
        0.0,
        1.0
      ],
      "name": "can opener_2"
    },
    {
      "mesh": 2,
      "name": "Object_7"
    }
  ],
  "samplers": [
    {
      "magFilter": 9729,
      "minFilter": 9987,
      "wrapS": 10497,
      "wrapT": 10497
    }
  ],
  "scene": 0,
  "scenes": [
    {
      "name": "Sketchfab_Scene",
      "nodes": [
        0
      ]
    }
  ],
  "textures": [
    {
      "sampler": 0,
      "source": 0
    },
    {
      "sampler": 0,
      "source": 1
    },
    {
      "sampler": 0,
      "source": 2
    }
  ]
}
